<?xml version="1.0" encoding="UTF-8"?>
<!DOCTYPE svg PUBLIC "-//W3C//DTD SVG 1.1//EN" "http://www.w3.org/Graphics/SVG/1.1/DTD/svg11.dtd">
<!-- Creator: CorelDRAW -->
<svg xmlns="http://www.w3.org/2000/svg" xml:space="preserve" width="92.5682mm" height="92.0381mm" version="1.1" style="shape-rendering:geometricPrecision; text-rendering:geometricPrecision; image-rendering:optimizeQuality; fill-rule:evenodd; clip-rule:evenodd"
viewBox="0 0 2261.79 2248.84"
 xmlns:xlink="http://www.w3.org/1999/xlink"
 xmlns:xodm="http://www.corel.com/coreldraw/odm/2003">
 <defs>
  <style type="text/css">
   <![CDATA[
    .fil0 {fill:#D4AF37}
    .fil1 {fill:white}
   ]]>
  </style>
 </defs>
 <g id="Слой_x0020_1">
  <metadata id="CorelCorpID_0Corel-Layer"/>
  <path class="fil0" d="M1454.31 437.45c0.87,0 12.21,-2.27 18.57,-2.27 48.57,-0.01 73.55,-12.05 91.31,21.3l4.78 7.41c0.28,0.31 0.75,0.7 1.03,1.01 0.29,0.31 0.76,0.7 1.06,1.02l9.66 13.2c4.31,5.08 5.32,4.97 9.81,8.8 6.52,5.55 8.78,13.47 16.03,21.22 13.08,13.99 24.97,27.26 35.9,40.57 6.21,7.57 10.04,15.37 16.71,22.65 21.35,23.32 13.22,10.78 34.71,41.93l16.38 20.67c5.91,4.87 6.46,2.15 11.73,8.95l22.77 33.23c8.55,13.74 32.25,24.55 29.42,46.26 -2.42,1.05 -3.78,1.18 -6.61,2.62 -24.48,12.38 -38.29,9.93 -50.66,17.86 -6.54,4.19 -21.06,7.23 -29.13,9.96 -6.62,2.24 -10.92,1.35 -17.27,3.6 -6.13,2.17 -3.81,3.09 -12.87,5.8 -24.35,7.28 -24.26,4.94 -44.21,15.67 -4.4,2.37 -8.52,2.91 -13.74,4.85 -9.28,3.45 -21.21,5.34 -29.04,10.56 -17.33,11.57 0.49,2.92 -24.58,12.45l-41.52 18.63c-5.23,2.3 -8.65,2.58 -13.56,5.13l-26.94 12.37c-5.06,1.48 -10.97,1.37 -16.55,2.54 -16.35,3.44 -19.16,8.07 -49.03,8.86 -31,0.82 -11.55,-0.78 -35.42,3.78 -11.37,2.17 -27.23,-0.38 -38.75,1.1 -10.25,1.32 -0.83,2.37 -14.64,3.67l-66.37 2.26c-22.78,-0.17 -58.52,-1.83 -79.12,2.89l-71.9 3.07c-32.74,0.03 -21.92,4.64 -39.15,4.81 -10.55,0.1 -22.54,-1.35 -32.58,1.06 -23.55,5.66 -207.6,7.23 -225.31,4.85 -26.72,-3.58 -44,-3.07 -66.79,-12.02 -9.73,-3.82 -37.59,-9.93 -57.11,-19.2 -6.58,-3.12 -9.91,-2.73 -16.01,-4.53 -12.41,-3.67 -15.52,-11.11 -43.01,-14.77 -14.07,-1.88 -18.73,-5.6 -30.52,-9.07 -22.63,-6.65 -100.93,-19.1 -130.92,-25.16 -6.86,-1.39 -7.46,-1.6 -13.34,-4.51 -6.85,-3.38 -5.62,-2.64 -10.46,-7.07l24.94 -40.37c18.06,-23.54 18.33,-32.7 24.45,-41.85l20.91 -28.64c8.08,-9.6 14.69,-28.95 31.34,-49.29 15.08,-18.42 5.57,-9.04 13.18,-19.91 15.86,-22.66 35.18,-59.15 52.33,-78 23.18,-25.48 0.99,-10.22 34.03,-44.84l5.31 -5.06c0.17,-0.19 0.99,-0.87 1.07,-1.47 0.05,-0.36 0.28,-0.52 0.49,-0.29l93.05 -5.24c14.34,0.05 26.13,-2.14 37.24,-2.14 27.53,-0.01 19.79,1.39 46.02,-2.91l133.96 -3.54c13.15,-0.06 9.56,-3.47 24.71,-3.59 9.3,-0.07 19.8,0.66 28.97,0 15.11,-1.08 40.6,-0.71 55.52,-2.59l134.91 -6.09c27.82,0.08 11.19,-3.17 26.89,-3.36l37.24 -0.02c4.15,-0 5.8,-2.24 14.48,-2.23l28.96 -0.01c14.55,-0 6.32,-3.31 18.62,-3.32 44.04,1.16 92.23,-3.29 138.6,-3.26zm-1454.31 259.88l0 119.23c9.55,1.66 2.11,1.02 9.3,3.27 4,1.25 6.26,1.35 10.41,2.42 7.17,1.85 10.56,4.88 16.29,7.63 13.62,6.53 72.06,12.55 86.95,14.81 20.59,3.13 26.25,3.06 45.13,-0.2 15.1,-2.61 30.08,-1.18 42.03,-8.03 9.09,-5.21 3.07,-4.63 15.47,-8.76 24.88,-8.29 37.55,-18.57 52.75,4.15 8.61,12.85 8.3,25.53 6.74,44.66 -3.73,2.19 -4.54,1.62 -8.39,3.63l-54.69 27.95c-9.84,5 -2.2,0.69 -8.48,6.19 -10.13,8.86 -22.85,11.95 -34.32,21.43 -26.64,22.01 -23.11,24.09 -32.61,50.03 -7.49,20.44 -15.04,101.26 -16.17,122.39 -0.51,9.55 -1.83,43.1 1.72,52.18 3.98,10.18 90.01,-1.72 101.5,-1.98 12.22,-0.28 24,-0.59 36.21,-1.63l18.91 -26.66c8.87,-13.6 4.84,-12.87 20.57,-26.95 6.02,-5.39 10.26,-11.74 17.73,-14.98 4.08,-1.77 50.87,-4.47 57.66,-4.42 8.32,0.05 23.32,1.01 30.88,-0.33 13.93,-2.47 11.02,-2.95 29.17,-2.96l27.89 -3.48c14.16,-2.99 97.5,-3.08 115.53,3.82 26.45,10.13 18.92,24.28 31.22,32.69 16.51,11.3 13.25,26.2 38.43,25.85 12.17,-0.17 16.53,-2.47 28.91,-2.53 21.76,-0.1 70.66,-0.58 89.8,-4.85 9.38,-2.09 20.53,-0.74 30.32,-0.79 12.45,-0.06 16.4,-2.34 28.82,-2.39 10.76,-0.04 22,0.93 32.59,-0.49 28.88,-3.85 60.13,-3.94 89.57,-3.95l107.32 -4.61c10.33,-1.17 1.79,-1.7 12.67,-3.2 8.95,-1.23 23.62,-0.1 33.17,-0.19 14.56,-0.15 11.69,-3.53 26.65,-3.61l90.15 -4.91c8.11,-1.81 21.18,-0.55 29.99,-0.55 12.64,-0 17.31,-2.13 28.85,-2.31 43.02,-0.66 79.39,-4.41 122.2,-4.51 12.63,-0.03 16.56,-2.27 28.82,-2.38l153.24 -7.93c7.84,-0.58 6.44,0.21 11.08,-3.84 3.83,-3.35 3.96,-5.49 6.45,-10.06 3.49,-6.42 8.43,-13.02 11.81,-19.12 9.65,-17.41 9.89,-27.86 32.95,-31.14l152.83 -6.68c12.59,0.13 18.1,-1.81 28.87,-2.05 10.1,-0.22 21.1,0.68 31.11,0.11 10.85,-0.63 17.69,-2.58 31.12,-2.19 47.56,1.36 56.6,51.01 70.23,57.66 8.66,4.23 131.62,-1.11 137.94,-6.42 3.36,-3.57 0.68,1.85 2.23,-4.19l-0.01 -20.05c-1.23,-12.67 -5.23,-13.11 -6.68,-21.22 -2.18,-12.19 -1.89,-26.06 -5.75,-38.32 -1.38,-4.39 -0.44,-1 -1.89,-4.23 -1.82,-4.07 -0.97,-0.34 -2.17,-5.35l-4.66 -36.65c-1.19,-10.73 -1.49,-5.39 -3.39,-11.48 -11.73,-37.42 1.2,-41.14 -38.06,-76.26 -13.05,-11.67 -24.72,-10.76 -39.88,-18.08 -24.92,-12.03 -56.05,-18.37 -77.9,-35.65 -1.12,-17.89 -2.88,-34.47 7.69,-48.22 13.21,-17.2 15.83,-8.03 32.85,-5.01 27.53,4.89 59.46,25.78 102.27,12.28 15.09,-4.76 35.5,-2.61 49.62,-10.68 5.85,-3.34 15.93,-5.86 23.67,-7.18 8.56,-1.45 15.62,-3.07 22.03,-7.12 0.38,-0.24 0.87,-0.6 1.24,-0.85l19.04 -9.84c14.62,-4.84 27.97,-12.33 33.38,-26.78 4.84,-12.92 4.31,-40.26 0.79,-54.9 -3.05,-12.68 -12.75,-32.89 -21.38,-40.63 -15.03,-13.48 -25.33,-13.5 -46.84,-13.19 -8.72,0.12 -20.4,-0.52 -28.75,0.44 -8.19,0.94 -15.38,4.37 -25.34,5.15 -8.65,0.67 -19.96,-0.17 -28.24,1.38l-27.42 3.67c-23.7,0.9 -69.05,16.95 -89.79,31.95l-64.44 55.46c-5.71,5.73 -11.19,8.95 -16.58,14.46 -6.81,6.95 -5.54,12.36 -17.33,13.26 -8.99,-3.65 -12.23,-14.64 -19.21,-21.73 -13.41,-13.64 -28.91,-31.85 -39.05,-47.94l-19.79 -23.55c-9.46,-12.95 -3.8,-10.84 -18.45,-24.93 -3.85,-3.7 -7.79,-6.26 -10.75,-10.08l-27.53 -38.47c-3,-4.03 -17.72,-17.83 -29.69,-34.43 -10.67,-14.8 -5.93,-12.05 -19.68,-23.97 -4.45,-3.85 -0.78,-0.25 -4.34,-5.61l-61.89 -68.74c-9.08,-8.23 -32.81,-29.48 -42.5,-33.79 -20.17,-8.96 -15.74,-14.09 -43.25,-22.81 -11.54,-3.66 -24.74,-4.04 -36.32,-7.48 -18.96,-5.63 -106.16,-4.79 -122.74,-0.7 -17.16,4.23 -28.28,0.24 -57.98,5.35 -6.55,1.13 -15.11,0.52 -21.94,0.54l-84.74 3.41c-15.83,0.46 -27.99,-0.34 -41.87,1.65 -13.38,1.92 -30.08,-1.15 -42.58,0.86 -7.54,1.21 -5.28,2.86 -16.86,3.08l-66.37 1.08c-18.88,-0.1 -21.97,3.5 -39.23,3.38l-125.92 4.69c-8.41,1.18 -4.96,2.82 -16.75,3.14 -57.99,1.55 -141.11,-1.75 -192.47,23.32 -5.21,2.54 -11.31,4.69 -15.98,6.88 -19.52,9.15 -33.77,22.56 -49.57,36.96 -13.06,11.9 -20.81,20.11 -30.41,33.74 -3.72,5.28 -6.18,8.16 -9.19,13.53 -5.82,10.4 -12.81,15.1 -18.4,24.95l-16.41 27.17c-12.37,17.23 -13.88,25.79 -29.02,45.47l-13.02 20.11c-8.13,9.36 -5.61,13.51 -16.43,27.01l-26.06 39.97c-2.72,4.98 -6.02,8.38 -8.52,12.13l-60.35 92.97c-11.29,9.29 -25.31,-5.55 -43.23,-17.79l-2.37 -1.65c-15.28,-10.45 -25.44,-27.87 -43.51,-35.48l-24.27 -9.13c-0.49,-0.18 -1.05,-0.34 -1.53,-0.52 -13.4,-5.03 -20.22,-14.33 -34.62,-16.21 -11.13,-1.45 -9.65,-1.75 -18.17,-4.74l-120.37 -10.09c-12.12,0.05 -9.22,1.79 -16.99,3.26 -11.11,2.11 -28.47,0.68 -38.64,5.45 -9.39,4.41 -1.38,6.38 -14.65,8.58z"/>
  <path class="fil0" d="M1137.69 1842.35c27.17,-16.89 35.77,-7.73 65.37,9.66 9.49,5.58 8.29,5.65 16.1,12.57l68.26 49.79c13.37,7.19 24.36,16.61 39.58,20.73 14.8,4.01 37.02,-0.32 48.13,-8.25 13.74,-9.8 19.35,-18.48 19.07,-40.89 -0.37,-29.19 -20.1,-36.94 -36.68,-52.04 -10.56,-9.62 -39.83,-26.91 -52.34,-34.57 -14.8,-9.06 -65.6,-40.19 -45.14,-64.13 13.39,-15.67 44.41,6.69 54.71,11.17 11.87,5.16 15.13,10.1 26.34,16.92 21.66,13.17 30.51,25.02 53.55,35.73 12.44,5.78 21.4,19.41 33.49,26.41 16.79,9.72 41.74,28.88 60.97,27.53 16.71,-1.16 30.41,-5.9 41.42,-18.94 3.42,-4.04 7.42,-13.43 9.48,-19.55 8.36,-24.86 -7.08,-42.49 -23.78,-58.66 -5.71,-5.53 -9.36,-7.65 -17.1,-11.71l-53.11 -35.79c-9.35,-6.12 -22.91,-10.59 -37.49,-20.75 -7.82,-5.44 -25.94,-23.3 -28.66,-31.09 -3.3,-9.46 -2.75,-21.47 6.37,-26.53 16.56,-9.19 35.48,5.15 49.47,12.05 17.82,8.79 52.54,40.76 76.66,55.56 20.41,12.52 15.1,11.59 24.7,18.61 2.49,1.82 1.86,1 5.41,2.79l24.83 12.68c18,11.8 53.87,15.39 67.06,-0.54 8.34,-10.07 15.78,-29.19 14.56,-45.78 -1.91,-25.93 -36.98,-52.58 -58.67,-61.77 -8.17,-3.46 -9.22,-5.8 -17.47,-11.14 -7.79,-5.04 -10.63,-6.59 -16.81,-12.24 -11.86,-10.85 -21.83,-9.67 -36.47,-23.49l-32.88 -24.9c-13.25,-8.19 -23.61,-13.61 -37.19,-23.15l-26.43 -17.09c-4.71,-2.96 -1.94,-0.9 -4.53,-3.36 -10.67,-10.11 -26.11,-19.32 -38.61,-27.68 -12.66,-8.47 -21.98,-15.79 -33.56,-24.31 -9.27,-6.81 -12.05,-5.18 -21.42,-9.87l-16.86 -11.97c-23.15,-16.15 -23.95,-14.06 -36.18,-21.65 -22.71,-14.1 -61.59,-35.2 -89.24,-17.7l-20.06 11.23c-9.06,5.09 -9.39,6.74 -16.89,11.88 -6.6,4.53 -12.43,7.09 -16.52,12.28 -6.07,7.7 -12.35,10.59 -19.94,17.42 -0.45,0.41 -1.77,1.56 -2.19,2l-8.8 9.71c-7.25,5.75 -9.18,6.72 -15.75,13.34 -7.65,7.72 -25.13,16.82 -35.41,22.5 -15.13,8.37 -22.85,14.71 -40,20.03 -15.99,4.97 -29.66,9.19 -49.24,9.1 -26.9,-0.12 -41.41,0.7 -63.64,-11.35 -15.62,-8.46 -29.09,-5.18 -45.34,-29.17 -5.05,-7.45 -7.38,-8.01 -12.01,-16.94 -5.57,-10.74 -6.16,-8.38 -6.18,-23.67 -0.03,-30.39 9.33,-42.31 28.89,-61.07 6,-5.76 9.75,-7.4 15.74,-13.22 5.39,-5.23 9.32,-11.76 13.55,-15.34 9.02,-7.61 25.55,-13.87 42.71,-31.87 5.72,-5.99 1.43,-1.38 8.41,-5.95 6.5,-4.26 9.52,-9.22 15.25,-13.72 6.51,-5.11 13.41,-7.49 18.29,-12.84 16.33,-17.86 9.58,-10.32 32.84,-25.07 11.32,-7.18 4.77,-7.67 14.86,-14.08l35.87 -24.67c8.14,-3.4 1.61,3.68 7.29,-6.29 4.41,-7.74 9.28,-12.1 12.53,-20.79l1.79 -6.25c-21.71,5.5 -77.16,0.5 -104.97,4.8 -9.57,1.48 -18.54,1.1 -28.35,1.02l-23.21 2.82c-11.75,2.36 -39.8,1.03 -53.49,2.62 -8.65,1 -19.92,0.33 -28.82,0.26 -11.87,-0.09 -14.93,1.69 -24.7,2.28 -9.31,0.56 -19.64,-0.18 -29.08,0.03 -10.04,0.22 -13.88,2.17 -24.7,2.34 -9.34,0.14 -19.77,-0.62 -28.95,-0.05 -9.39,0.57 -13.13,2.27 -24.87,2.23 -7.59,-0.02 -19.64,-0.78 -26.71,-0.02 -10.94,1.18 -0.97,1.02 -10.86,2.89 -12.76,2.41 -28.37,-0.94 -40.95,0.66 -10.78,1.38 -1.94,1.4 -10.91,2.94l-65.72 2.58c-31.56,-0.13 -78,5.78 -103.46,5.69 -37.92,-0.13 -73.57,3.41 -109.73,3.25 -14.63,-0.07 -14.15,2.78 -24.67,3.52 -8.14,0.57 -18.63,-0.15 -27.03,-0.13 -11.68,0.03 -14.34,2 -24.69,2.37 -8.82,0.32 -17.94,-0 -26.89,0.29 -1.97,20.25 1.88,38.01 7.54,52.22 4.95,12.44 2.41,13.35 5.27,25.84 1.57,6.87 5.45,9.93 8.35,20.29 4.56,16.28 6.9,35.5 16.46,48 4.86,6.35 4.09,10.72 6.67,19.79 2.32,8.13 4.43,15.66 7.43,22.07l17.34 42.15c6.71,14.04 11.51,28.62 17.78,42.49 6.97,15.4 7.41,8.46 15.4,30.17l33.39 70.11c4.22,10.62 8.28,8.84 22.01,37.93 8.23,17.44 15.74,21.8 24.16,35.57 7.07,11.56 13.19,26.6 22.63,35.49 41.59,39.22 23.01,32.09 54.02,30.49 10.15,-0.52 20.98,0.36 31.16,0.01 10.59,-0.37 14.46,-2.44 26.79,-2.41 21.88,0.05 37.65,-2.24 57.97,-2.1 19.43,0.13 34.08,-4.51 53.78,-2.9 8.55,11.1 12.91,18.62 23.75,27.4l22.5 27.06c10.37,12.31 11.15,15.69 27.28,24.54 11.22,6.16 16.6,14.91 26.37,23.2 11.02,9.35 15.13,15.85 30.84,20.86 18.72,5.98 27.8,23.15 45.22,29.34 16.89,6 32.3,18.87 48.27,25.97 0.59,0.26 2.29,1 2.88,1.26 0.44,0.2 0.98,0.44 1.42,0.64 0.44,0.2 0.98,0.44 1.42,0.64l30.94 12.72c21.55,10.63 35.71,12.34 54.8,19.85 11.5,4.53 26.73,4.58 39.71,10.04 6.86,2.89 11.48,4.23 19.52,5.31l43.02 8.42c8.45,0.79 16.19,-0.43 24.79,0.16 23.07,1.58 48.17,3.2 72.44,1.2 10.6,-0.87 25.31,-10.93 31.58,-15.86 5.54,-57.73 -15.28,-51.97 -32.85,-63.1 -4.85,-3.08 -7.83,-7.87 -13.12,-11.28 -17.76,-11.48 -28.65,-22.7 -27.12,-45.85z"/>
  <path class="fil1" d="M140.34 607.57c8.45,6.21 78.32,16.4 88.74,19.41 14.78,4.27 82.82,20.24 89.5,17.01l11.96 -13.62c10.13,-17.21 -1.37,-5.98 18.43,-31.67 9.4,-12.19 23.52,-37.7 30.82,-45.78 6.13,-6.78 11.3,-13.31 17.21,-20.03 7.45,-8.48 9.62,-14.08 16.2,-23.12 10.92,-15.01 28.18,-26.88 38.92,-41.86 0.27,-0.38 0.6,-0.89 0.87,-1.28 13.65,-20.03 40,-32.36 54.68,-52.86 9.88,-13.79 32.71,-20.55 43.67,-32.64l21 -18.39c7.28,-5.68 14.43,-9.86 23.26,-16.03 5.56,-3.89 5.05,-5.6 9.91,-8.72l37.17 -20.64c13.81,-6.09 2.95,0.67 10.74,-8 8.01,-8.93 26.3,-16.34 37.02,-20.61l25.7 -13.6c11.86,-5.78 27.43,-10.33 38.67,-17.59 16.75,-10.82 53.78,-20.13 72.38,-25.39 4.79,-1.36 10.86,-2.57 14.75,-3.8 11.54,-3.64 -3.06,-3.58 42.81,-14.94 5.04,-1.25 9.61,-1.36 14.65,-3.76l13.18 -5.27c9.61,-2.26 25.01,-3.1 33.3,-6.27 21.97,-8.4 29.12,-3.65 48.64,-7.52 7.06,-1.4 5.61,-2.61 16.54,-3.99 10.07,-1.28 25.57,0.1 36.35,-2.85 10.95,-2.99 57.99,-5.51 71.77,-5.25 57.34,1.07 117.89,0.4 174.59,12.43 11.83,2.51 18.93,1.58 31.82,5.31 10.81,3.13 17.98,5.69 29.45,6.86 13.07,1.34 18.31,5.21 29.23,8.06 34.05,8.9 17.72,0.72 58.5,16.88 13.82,5.47 28.02,7.42 42.05,13.94 5.23,2.43 6.69,4.31 11.65,6.43l27.53 9.9c7.99,3.76 18.17,9.28 26.11,11.87 13.31,4.36 13.97,5.98 25.73,13.07 16.47,9.94 33.36,15.28 49.42,25.41 15.3,9.65 18.3,13.84 44.53,29.35 16.17,9.56 84.27,62.42 95.92,74.03 3.73,3.71 5.38,6.2 8.84,9.8 6.9,7.18 13.39,9.84 20.19,16.98 4.03,4.23 4.9,6.9 8.41,10.28 6.44,6.21 4.21,0.89 10.33,8.33l35.25 39.12c16.72,21.12 36.4,40.98 50.01,63.63 7.77,0.38 37.91,-7.03 48.05,-8.86 11.82,-2.13 11.33,-3.49 19.73,-6.8 13.95,-5.51 31.39,-4.03 44.18,-11.6 6.4,-3.78 1.61,-3.16 8.87,-5.14l34.47 -7.7c7.99,-1.69 12.48,-6.13 19.54,-8.85 -1.81,-26.47 -23.33,-40.64 -35.08,-61.7 -10.6,-19 -30.24,-34.5 -43.52,-51.68l-93.53 -96.73c-8.37,-6.39 -15.94,-16.44 -24.7,-22.83 -9.28,-6.77 -16.96,-16.24 -25.54,-21.96 -16.48,-10.99 -29.91,-25.96 -46.95,-35.97 -13.81,-8.12 -38.92,-31.44 -47.14,-35.25 -9.51,-4.41 -7.33,-0.77 -16.69,-8.5 -21.71,-17.92 -49.94,-29.5 -74.54,-43.57 -9.32,-5.33 -3.34,-3.87 -16.41,-8.22 -6.46,-2.15 -8.42,-4.57 -14.75,-7.96 -5.99,-3.21 -11.03,-5.27 -16.56,-8.45 -4.37,-2.51 -9.32,-6.42 -14.08,-8.18l-33.71 -13.74c-7.27,-2.23 -12.39,-5.7 -17.63,-7.2 -19.09,-5.49 -35.35,-16.6 -50.93,-19.21 -7.59,-1.27 -11.78,-3.17 -19.8,-5.49 -7.25,-2.09 -10.71,-4.01 -16.76,-6.21 -8.64,-3.14 -12.01,-2.64 -20.29,-4.64 -11.56,-2.79 -24.59,-7.99 -35.96,-11.16 -6.54,-1.82 -12.36,-1.3 -19.95,-2.89 -13.34,-2.78 -23.65,-8.71 -36.7,-10.21 -23.72,-2.73 -39.29,-7.99 -63.64,-8.97 -16.62,-0.67 -24.31,-5.18 -43.37,-5.13 -29.41,0.07 -61.28,-5.91 -91.03,-5.32 -32.56,0.64 -61.52,2.31 -93.15,2.54 -23.45,0.17 -149.28,15.62 -167.92,23.52 -15.41,6.52 -25.12,4.25 -38.97,8.47 -5.23,1.59 -10.2,4.71 -16.05,6.39 -6,1.72 -14.18,2.41 -20.77,4.34 -28.71,8.39 -17.91,8.2 -34.7,12.73 -30.56,8.26 -44.64,18.03 -69.68,24.93l-113.93 52.2c-12.1,9.1 -35.46,17.3 -45.87,26.64 -5.56,4.99 -5.22,6.57 -12,10.43 -23.66,13.46 -36.94,20.07 -58.71,36.76l-27.94 19.7c-7.29,4.69 -5.1,6.04 -12.62,12.09 -9.81,7.91 -18.45,12.86 -28.26,19.57 -7.65,5.23 -13.71,16.64 -23.4,23.93 -35.98,27.06 -29.6,28.03 -48.61,46.61 -10.43,10.19 -27.25,21.31 -36.11,34.08l-33.49 38.97c-10.36,9.91 -12.85,16.29 -20.34,27.3 -6.87,10.1 -14.22,18.52 -21.15,26.4 -15,17.07 -26.41,37.29 -39.61,55.58 -6.32,8.75 -12.04,21.69 -18.09,29.45 -19,24.39 -14.23,25.8 -25.7,46.81 -3.73,6.82 -6.33,8.93 -6.94,18.09z"/>
  <path class="fil1" d="M1781.21 1686.85c10.18,-0.65 9.36,-3.27 22.6,-3.3 8.83,-0.02 20.73,0.84 29.18,0.09 10.97,-0.98 8.06,-3.57 22.52,-3.51 21.03,0.09 25.3,2.78 37.24,-17.71 18.19,-31.22 7.96,-15.15 17.7,-38.73 3.85,-9.32 6.01,-7.45 11.21,-16.92l16.8 -39.03c8.53,-18.61 9.2,-17.82 15.23,-38.71 7,-24.24 13.88,-25.7 20.2,-49.87 3.12,-11.94 9.03,-20.32 11.31,-29.83 7.65,-31.92 15.04,-45.72 19.68,-63.08 4.74,-17.74 -1.79,-11.66 10.51,-44.18l10.63 -45.22c2.72,-10.74 1.68,-13.67 2.55,-25.16 0.61,-8.03 3.26,-12.97 5.03,-21.2 3.7,-17.24 1.93,-32.89 6.36,-48.91 3.77,-13.61 2.71,-37.24 2.06,-52.41 -11.45,-1.45 -28.81,1.4 -43.65,1.31l-377.06 18.49c-13.99,1.75 -28.62,-0.96 -42.5,1.1l-124.5 5.93c-6.39,-0.04 -16.84,-0.6 -22.81,0.16 -11.02,1.4 -3.32,2.89 -16.4,3.26l-211.11 8.81c-20.69,-0.02 -19.92,0.51 -34.47,9.57 -5.26,3.27 -7.8,4.96 -14.09,8.7l-38.47 25.72c-12.82,9.9 -21.06,10.92 -33.22,22.59 -2.16,2.07 -3.63,3.44 -5.12,5.19 -8.7,10.19 -24.86,21.97 -36.12,30.06 -3.71,2.66 -10.05,6.35 -13.07,9.67 -6.45,7.1 -0.76,4.59 -9.47,11.31 -8.66,6.69 -16.87,12.86 -25.23,18.4 -10.75,7.12 -25.78,26.79 -45.26,41.46 -23.61,17.78 -11.91,10.34 -22.91,20.47l-23.82 19.65c-9.9,8.92 -43.97,28.51 -8.67,50.47 21.13,13.14 43.03,12.64 74.13,12.34 17.99,-0.18 23.06,-4.75 35.6,-7.61 18.21,-4.16 18.55,-2.41 28.37,-14.48 7.72,-9.48 16.85,-11.92 25.23,-18.49l94.35 -81.37 28.86 -14.71c10.76,-5.06 25.74,-4.21 39.96,-3.8 23.18,0.67 18.11,2.28 33.99,9.25 23.27,10.22 31.16,9.8 56.72,30.73 22.12,18.12 34.46,21.74 52.88,36.07 20.93,16.28 59.27,38.58 78.08,52.19 8.49,6.15 17.39,12.82 24.74,18.7 21.91,17.54 14.17,6.88 27.2,16.26 7.96,5.73 16.41,12.17 24.61,18.85 5.13,4.17 8.92,6.05 14.29,8.67l52.9 35.91c13.32,7.68 23.31,18.69 36.76,27.24 15.16,9.63 11.84,3.83 27.5,16.01 28.5,22.17 41.42,45.5 46.71,83.63l84.23 0z"/>
  <path class="fil1" d="M1992.12 1871.55c3,-3.91 3.91,-6.57 6.32,-10.26 5.86,-9 16.53,-18.41 20.93,-28.99 4,-9.62 14.23,-19.91 20.18,-29.17 5.99,-9.32 19.17,-36.76 19.74,-48.24l-71.74 3.77c-11.41,1.26 -25.14,-0.46 -36.85,0.22l-70.29 4.32c-17.05,0.24 -16.66,1.45 -26.79,11.21 -12.54,12.09 -17.39,20.19 -36.56,37.95 -5.92,5.48 -13.93,10.92 -20.24,16.91 -15.42,14.64 6.19,0.83 -38.99,35.51l-20.06 17.15c-6.92,5.46 -12.72,9.7 -21.68,15.6 -4.14,2.72 -6.69,5.65 -10.3,8.16l-55.23 35.9c-13.49,10.67 -32.39,18.21 -47.63,26.95 -5.8,3.32 -6.75,4.91 -11.3,7.54l-19.11 9.5c-25.88,15.66 -54.75,26.54 -82.31,37.72 -14.23,5.77 -29.05,6.84 -42.62,13.41 -14.15,6.85 -27.85,9.65 -42.84,12.92 -9.08,1.98 -6.9,2.91 -13.23,5.24l-61.89 12.84c-24.26,3.34 -40.85,6.81 -65.41,9.24 -11.42,1.13 -20.26,4.13 -33.28,4.32 -35.07,0.5 -70.83,3.64 -107.62,2.12 -12.81,-0.53 -24.99,0.14 -37.33,-0.23l-100.51 -10.91c-12.61,-2.13 -20.57,-4.05 -31.36,-6.6 -9.68,-2.29 -20.24,-2.1 -32.14,-5.33 -9.72,-2.64 -18.37,-6.56 -28.37,-7.84 -16.31,-2.09 -28.32,-8.5 -44.38,-12.68 -6.18,-1.61 -8.56,-1.2 -14.85,-3.56 -7.98,-2.99 -18.4,-8.2 -25.29,-11.66l-79.58 -32.28c-17.2,-8.46 -58.43,-29.59 -70.98,-38.64l-34.19 -21.71c-4.68,-3.3 -7.14,-4 -11.31,-7.34 -15.06,-12.06 -29.99,-17.12 -44.38,-29.98l-72.06 -58.38c-13.82,-12.58 -47.73,-5.38 -64.61,-2.59 -16.78,2.78 -142.33,2.28 -156.46,8.95 -0.43,7.77 4.86,16.66 8.95,21.79 4.11,5.16 10.55,8.31 15.48,13.42 5.41,5.61 9.26,11.47 13.84,17.28 10.7,13.57 17.99,19.54 31.09,28.89 5.01,3.57 10.68,10.67 14.42,14.44 5.8,5.85 8.84,9.91 13.83,15.19 13.65,14.43 18.06,15.05 33.07,26.83 10.85,8.52 19.92,18.67 32.29,25.75l17.37 11.47c7.35,4.86 12.05,6.13 18.64,12.41 5.64,5.37 12.71,7.55 18.74,10.58l34.05 23.5c6.77,4.46 14.83,6.36 21.21,9.91 6.96,3.87 10.19,6.36 17,11.87l59.01 31.76c7.81,3.65 13.28,7.16 19.58,9.34 14.26,4.94 25.38,12.98 38.39,19.41 153.2,57.61 300.62,107.03 501.3,102.04 265.98,-6.61 630.09,-145.13 808.31,-376.94z"/>
  <path class="fil0" d="M116.98 1595.45c1.17,3.43 2.35,5.13 4.11,10.23 3,8.7 5.03,14.8 9.72,21.32 7.1,9.85 6.14,6.98 10.74,20.23l31.16 62.08c7.25,14.16 11.31,14.36 19.79,27.54 18.3,28.45 0.53,25.98 49.51,22.67 9.92,-0.67 21.08,0.13 31.14,-0.04 11.55,-0.2 15.97,-2.31 28.84,-2.24 44.55,0.25 22.14,-2.22 57.76,-3.99 0.97,-19.24 -14.89,-30.33 -21.73,-37.66l-7.98 -12.35c-1.19,-2.41 -2.08,-4.01 -3.53,-6.9 -5.8,-11.55 -10.07,-18.01 -17.53,-28.28l-15.96 -29.43c-17.56,-30.8 -7.81,-6.2 -17.5,-28.08l-11.2 -24.32c-9.44,-23.39 -7.02,-4.6 -19,-36.74 -13.7,-36.75 -12.84,-10.53 -27.66,-61.47 -3.64,-12.51 -9.6,-8.68 -20.01,-47.75 -6.57,-24.67 -7.31,-7.46 -13.07,-31.93l-8.03 -27.15c-2.27,-6.46 -0.66,-2.24 -3.94,-6.97 -5.39,-7.76 -3.78,-16.79 -8.82,-35.98 -6.94,-26.39 -12.51,-68.11 -14.9,-97.78 -5.12,-0.48 -122.99,2.87 -123.37,3.01 -12.79,4.78 -0.51,31.73 1.3,50.74 2.29,24.11 7.21,31.28 9.78,52.27 3.73,30.53 5.1,25.89 11.29,50.95 8.11,32.83 6.88,21.65 11.51,35.89 1.26,3.89 1.65,7.76 2.83,11.89 6.74,23.7 1.55,15.64 11.55,36.05 6.52,13.32 6.57,32.04 15.21,46.96 2.17,3.74 3.05,5.95 4.77,9.76 3.61,7.99 4.96,17.52 8.3,24.84 8.79,19.3 5.14,3.88 14.92,32.62z"/>
  <path class="fil1" d="M2261.79 1138.45l-27.57 -0.4c-11.41,1.46 -100.7,3.37 -103.88,7.16 -1.3,2.8 -8.47,70.8 -8.57,78.82 -0.23,17.4 -7.06,55.19 -11.74,74.12 -3.18,12.85 -3.67,22.86 -6.38,37.13 -3.7,19.44 -8.37,25.43 -10.26,32.73 -3.36,12.93 1.23,7.33 -7.9,36.15l-9.26 34.14c-2.96,10.74 -8.68,19.46 -12.15,31.5 -4.15,14.4 -5.87,18.85 -11.59,31.82 -9.09,20.61 -17.43,46.78 -26.04,60.86 -12.59,20.58 -7.77,16.79 -14.06,29.11 -9.12,17.86 -17.84,28.72 -22.58,43.73 -7.35,23.25 -20.88,29.63 -19.6,40.78 15.52,1.01 21.52,-2.04 36.44,-1.96l113.81 -4.62c86.41,-113.58 131.64,-397.46 141.35,-531.08z"/>
 </g>
</svg>
